<svg width="15" height="15" viewBox="0 0 15 15" fill="none" xmlns="http://www.w3.org/2000/svg">
<g clip-path="url(#clip0_1_324)">
<path d="M11.6721 3.6456L13.2295 5.20223L11.6721 3.6456ZM12.6736 2.27426L8.46254 6.48534C8.24496 6.70262 8.09657 6.97945 8.03607 7.28093L7.64709 9.22801L9.59417 8.8383C9.89565 8.77801 10.1721 8.63021 10.3898 8.41256L14.6008 4.20149C14.7274 4.07495 14.8278 3.92472 14.8962 3.75938C14.9647 3.59404 15 3.41684 15 3.23788C15 3.05892 14.9647 2.88171 14.8962 2.71637C14.8278 2.55104 14.7274 2.40081 14.6008 2.27426C14.4743 2.14772 14.3241 2.04734 14.1587 1.97886C13.9934 1.91037 13.8162 1.87512 13.6372 1.87512C13.4583 1.87512 13.2811 1.91037 13.1157 1.97886C12.9504 2.04734 12.8002 2.14772 12.6736 2.27426V2.27426Z" stroke="#6E6893" stroke-width="2" stroke-linecap="round" stroke-linejoin="round"/>
<path d="M13.5295 10.6986V12.9045C13.5295 13.2945 13.3746 13.6686 13.0988 13.9444C12.823 14.2202 12.449 14.3751 12.0589 14.3751H3.9706C3.58058 14.3751 3.20652 14.2202 2.93073 13.9444C2.65494 13.6686 2.5 13.2945 2.5 12.9045V4.81618C2.5 4.42616 2.65494 4.0521 2.93073 3.77631C3.20652 3.50052 3.58058 3.34558 3.9706 3.34558H6.17651" stroke="#6E6893" stroke-width="2" stroke-linecap="round" stroke-linejoin="round"/>
</g>
<defs>
<clipPath id="clip0_1_324">
<rect width="15" height="15" fill="white"/>
</clipPath>
</defs>
</svg>
